<svg width="202" height="40" viewBox="0 0 202 40" fill="none" xmlns="http://www.w3.org/2000/svg">
<path fill-rule="evenodd" clip-rule="evenodd" d="M18.7999 3.19965L2.93749 11.7034V28.2966L18.7999 36.8003L34.6623 28.2966V11.7034L18.7999 3.19965ZM37.5998 10.6343C37.5998 10.1957 37.3599 9.79292 36.9761 9.58715L19.3512 0.13859C19.0065 -0.0461967 18.5933 -0.0461966 18.2487 0.13859L0.62374 9.58715C0.239916 9.79292 0 10.1957 0 10.6343V29.3657C0 29.8043 0.239916 30.2071 0.623739 30.4128L18.2487 39.8614C18.5933 40.0462 19.0065 40.0462 19.3512 39.8614L36.9761 30.4128C37.3599 30.2071 37.5998 29.8043 37.5998 29.3657V10.6343Z" fill="#436283"/>
<path fill-rule="evenodd" clip-rule="evenodd" d="M16.2878 9.8803C16.3562 9.6489 16.557 9.48254 16.7952 9.45972L18.7174 9.27566C18.9557 9.25285 19.1838 9.37815 19.2942 9.59242L28.0908 26.6686C28.1915 26.864 28.1765 27.0996 28.0519 27.2805L26.9727 28.8467C26.8481 29.0276 26.6345 29.1238 26.4179 29.0966L13.161 27.4332C12.9895 27.4117 12.8361 27.3151 12.7416 27.1691L11.8135 25.7347C11.719 25.5887 11.693 25.4081 11.7424 25.2409L16.2878 9.8803ZM18.178 13.8525L14.9759 24.6739L24.359 25.8512L18.178 13.8525Z" fill="#436283"/>
<path d="M57.0311 34.4657C55.3478 34.4657 53.8481 34.0779 52.532 33.3021C51.216 32.5263 50.1295 31.4671 49.2725 30.1245L49.0889 33.9287H45.5998V2.60001H49.2725V15.3105C50.1295 13.9678 51.216 12.9235 52.532 12.1776C53.8481 11.4019 55.3478 11.014 57.0311 11.014C59.0817 11.014 60.8874 11.5063 62.4483 12.4909C64.0092 13.4755 65.2182 14.848 66.0751 16.6084C66.9627 18.3688 67.4065 20.4126 67.4065 22.7399C67.4065 25.0373 66.9627 27.0811 66.0751 28.8713C65.2182 30.6317 64.0092 32.0042 62.4483 32.9888C60.8874 33.9734 59.0817 34.4657 57.0311 34.4657ZM56.2047 31.1986C57.6432 31.1986 58.9134 30.8406 60.0152 30.1245C61.1476 29.4084 62.0352 28.4089 62.6779 27.1259C63.3512 25.8429 63.6879 24.3809 63.6879 22.7399C63.6879 21.0988 63.3665 19.6368 62.7238 18.3539C62.1117 17.0709 61.2394 16.0713 60.107 15.3553C58.9746 14.6392 57.6891 14.2811 56.2506 14.2811C54.904 14.2811 53.6951 14.6392 52.6238 15.3553C51.5832 16.0713 50.7569 17.0709 50.1448 18.3539C49.5633 19.6368 49.2725 21.0988 49.2725 22.7399C49.2725 24.3809 49.5633 25.8429 50.1448 27.1259C50.7569 28.4089 51.5832 29.4084 52.6238 30.1245C53.6644 30.8406 54.8581 31.1986 56.2047 31.1986Z" fill="#30313D"/>
<path d="M72.4995 33.9287V2.60001H76.1722V33.9287H72.4995Z" fill="#30313D"/>
<path d="M89.8405 34.4657C87.1472 34.4657 85.0354 33.869 83.5051 32.6755C82.0054 31.4522 81.2555 29.7664 81.2555 27.6182C81.2555 25.3506 82.0207 23.6201 83.551 22.4266C85.1119 21.2033 87.2849 20.5916 90.07 20.5916H96.4514C96.2983 18.4732 95.7627 16.8918 94.8445 15.8476C93.9264 14.7734 92.5491 14.2364 90.7128 14.2364C89.4579 14.2364 88.3714 14.49 87.4532 14.9972C86.5657 15.4746 85.8311 16.2504 85.2496 17.3245L81.9442 16.0713C82.5257 15.027 83.2296 14.1319 84.056 13.386C84.8823 12.6103 85.8464 12.0284 86.9482 11.6406C88.05 11.2229 89.3049 11.014 90.7128 11.014C92.8552 11.014 94.615 11.4317 95.9923 12.2671C97.4001 13.0727 98.456 14.2811 99.16 15.8923C99.8639 17.4737 100.201 19.4429 100.17 21.8L100.124 33.9287H96.7268L96.5432 30.9301C95.8698 32.0639 94.967 32.9441 93.8346 33.5706C92.7021 34.1674 91.3708 34.4657 89.8405 34.4657ZM90.0241 31.3329C91.3402 31.3329 92.4879 31.0643 93.4673 30.5273C94.4467 29.9604 95.1965 29.1697 95.7168 28.1553C96.2677 27.1408 96.5432 25.9175 96.5432 24.4853V23.5902H90.8964C88.754 23.5902 87.2237 23.9333 86.3055 24.6196C85.4179 25.3058 84.9741 26.2904 84.9741 27.5734C84.9741 28.7371 85.4179 29.662 86.3055 30.3483C87.1931 31.0047 88.4326 31.3329 90.0241 31.3329Z" fill="#30313D"/>
<path d="M105.99 33.9287V2.60001H109.662V21.6657L119.441 11.5511H124.078L115.539 20.5021L124.996 33.9287H120.451L113.105 23.0979L109.662 26.6336V33.9287H105.99Z" fill="#30313D"/>
<path d="M137.832 34.4657C135.598 34.4657 133.624 33.9734 131.91 32.9888C130.196 31.9744 128.85 30.587 127.87 28.8266C126.921 27.0662 126.447 25.0373 126.447 22.7399C126.447 20.4424 126.921 18.4135 127.87 16.6532C128.85 14.8928 130.181 13.5203 131.864 12.5357C133.578 11.5212 135.537 11.014 137.741 11.014C139.883 11.014 141.735 11.5361 143.296 12.5804C144.856 13.5949 146.065 15.027 146.922 16.8769C147.779 18.7268 148.208 20.9049 148.208 23.4112H130.166C130.319 25.8578 131.114 27.7674 132.553 29.1399C133.991 30.5124 135.812 31.1986 138.016 31.1986C139.638 31.1986 141 30.8256 142.102 30.0797C143.234 29.3338 144.107 28.3492 144.719 27.1259L147.886 28.6923C147.305 29.856 146.524 30.8704 145.545 31.7357C144.596 32.6009 143.464 33.2723 142.148 33.7497C140.862 34.227 139.424 34.4657 137.832 34.4657ZM130.441 20.4126H144.26C144.168 19.1296 143.816 18.0256 143.204 17.1007C142.622 16.1758 141.857 15.4597 140.908 14.9525C139.96 14.4452 138.888 14.1916 137.695 14.1916C136.532 14.1916 135.415 14.4452 134.343 14.9525C133.272 15.4298 132.385 16.1459 131.681 17.1007C130.977 18.0256 130.564 19.1296 130.441 20.4126Z" fill="#30313D"/>
<path d="M177.083 34.6C174.665 34.6 172.523 34.1077 170.656 33.1231C168.819 32.1086 167.381 30.7212 166.34 28.9608C165.3 27.1706 164.779 25.1119 164.779 22.7846V2.60001H168.682V22.7846C168.682 24.4256 169.034 25.8877 169.738 27.1706C170.472 28.4238 171.482 29.4084 172.768 30.1245C174.053 30.8107 175.522 31.1539 177.175 31.1539C178.858 31.1539 180.343 30.8107 181.628 30.1245C182.944 29.4084 183.954 28.4238 184.658 27.1706C185.393 25.8877 185.76 24.4256 185.76 22.7846V2.60001H189.616V22.7846C189.616 25.1119 189.096 27.1706 188.055 28.9608C187.015 30.7212 185.546 32.1086 183.648 33.1231C181.75 34.1077 179.562 34.6 177.083 34.6Z" fill="#30313D"/>
<path d="M197.698 33.9287V2.60001H201.6V33.9287H197.698Z" fill="#30313D"/>
</svg>
